<?xml version="1.0" encoding="utf-8"?>
<!-- Generator: Adobe Illustrator 26.0.1, SVG Export Plug-In . SVG Version: 6.00 Build 0)  -->
<svg version="1.1" id="Calque_1" xmlns="http://www.w3.org/2000/svg" xmlns:xlink="http://www.w3.org/1999/xlink" x="0px" y="0px"
	 viewBox="0 0 300 300" style="enable-background:new 0 0 300 300;" xml:space="preserve">
<style type="text/css">
	.st0{fill:#FCE021;}
	.st1{fill:#FFFFFF;}
</style>
<circle class="st0" cx="149.5" cy="150.5" r="146.5"/>
<path class="st1" d="M209.73,49.98l22.01,202.09c0.84,7.76-4.1,14.9-11.56,16.68l-13.5,3.21c-9.32,2.22-18.38-4.8-18.79-14.56
	l-3.8-91.59c-0.34-8.17-6.86-14.72-14.9-14.96l-35.94-1.05c-8.78-0.26-15.9,7.08-15.53,16.02l3.61,87.15
	c0.3,7.22-4.35,13.66-11.2,15.51l0,0c-9.02,2.43-18.11-3.92-19.14-13.39L68.98,53.01c-0.85-7.76,4.1-14.9,11.55-16.68l13.5-3.21
	c9.32-2.22,18.38,4.8,18.79,14.56l2.6,62.63c0.35,8.56,7.46,15.25,15.86,14.95l35.85-1.28c8.4-0.3,14.91-7.47,14.56-16.02
	l-2.31-55.87c-0.3-7.22,4.35-13.66,11.2-15.51l0,0C199.61,34.15,208.7,40.51,209.73,49.98z"/>
</svg>
